PathFileType	4	(X/Y/Z)	C:\Users\Basilio\Documents\Thesis Gigler\squatting_fais\c3dfiles\040\SLS_pre_back5\markers_experimental.trc
DataRate	CameraRate	NumFrames	NumMarkers	Units	OrigDataRate	OrigDataStartFrame	OrigNumFrames
200.000000	200.000000	4	63	mm	200.000000	918	1469
Frame#	Time	FHD			LBHD			RBHD			C7			T10			CLAV			LSHO			LUUPA			LMUPA			LDUPA			LLEP			LMEP			LRAD			LUL			LRFIN			RSHO			RUPA1			RMUPA			RDUPA			RLEP			RMEP			RRAD			RUL			RUFIN			LASI			RASI			USACR			LSACR			RSACR			LTHI1			LTHI2			LTHI3			LTHI4			LLFC			LMFC			LTIB1			LTIB2			LTIB3			LTIB4			LLMAL			LMMAL			LHEE			LMT1			LMT2			LMT5			RTHI			RTHI2			RTHI3			RTHI4			RLFC			RMFC			RTIB1			RTIB2			RTIB3			RTIB4			RLMAL			RMMAL			RHEE			RMT1			RMT2			RMT5			*61			*62			
		X1	Y1	Z1	X2	Y2	Z2	X3	Y3	Z3	X4	Y4	Z4	X5	Y5	Z5	X6	Y6	Z6	X7	Y7	Z7	X8	Y8	Z8	X9	Y9	Z9	X10	Y10	Z10	X11	Y11	Z11	X12	Y12	Z12	X13	Y13	Z13	X14	Y14	Z14	X15	Y15	Z15	X16	Y16	Z16	X17	Y17	Z17	X18	Y18	Z18	X19	Y19	Z19	X20	Y20	Z20	X21	Y21	Z21	X22	Y22	Z22	X23	Y23	Z23	X24	Y24	Z24	X25	Y25	Z25	X26	Y26	Z26	X27	Y27	Z27	X28	Y28	Z28	X29	Y29	Z29	X30	Y30	Z30	X31	Y31	Z31	X32	Y32	Z32	X33	Y33	Z33	X34	Y34	Z34	X35	Y35	Z35	X36	Y36	Z36	X37	Y37	Z37	X38	Y38	Z38	X39	Y39	Z39	X40	Y40	Z40	X41	Y41	Z41	X42	Y42	Z42	X43	Y43	Z43	X44	Y44	Z44	X45	Y45	Z45	X46	Y46	Z46	X47	Y47	Z47	X48	Y48	Z48	X49	Y49	Z49	X50	Y50	Z50	X51	Y51	Z51	X52	Y52	Z52	X53	Y53	Z53	X54	Y54	Z54	X55	Y55	Z55	X56	Y56	Z56	X57	Y57	Z57	X58	Y58	Z58	X59	Y59	Z59	X60	Y60	Z60	X61	Y61	Z61	X62	Y62	Z62	X63	Y63	Z63	

919	4.59	-122.3947372436524	1759.604370117188	-1201.031127929688	-241.6722106933594	1694.912841796875	-1242.894897460938	-289.8435363769532	1649.777221679688	-1111.521118164063	-279.3073425292969	1540.257934570313	-1156.616333007813	-361.8133544921876	1245.641357421875	-1125.927368164063	-154.7635192871094	1471.338012695313	-1163.71923828125	-217.5142669677735	1534.525756835938	-1298.202270507813	-69.98240661621095	1500.314331054688	-1394.35693359375	-36.67559814453126	1514.740112304688	-1360.024658203125	-1.463377356529236	1492.299194335938	-1405.00048828125	57.16658020019533	1468.856323242188	-1411.585571289063	53.64367294311525	1410.71533203125	-1379.092895507813	327.1305236816407	1504.143676757813	-1301.63818359375	333.9142150878907	1512.050048828125	-1377.491821289063	413.0729370117189	1529.793701171875	-1294.732177734375	-184.9505615234375	1529.1650390625	-1026.315063476563	-27.30560874938966	1483.2314453125	-941.6129150390627	-0.191014975309372	1505.5654296875	-975.3825683593752	40.92974090576173	1472.671508789063	-945.3428344726565	103.5696640014649	1469.124145507813	-956.0322875976565	98.41345214843753	1408.556884765625	-1001.286560058594	353.4205322265626	1533.100219726563	-1101.902954101563	368.1960144042969	1521.3134765625	-1028.006713867188	449.3996582031251	1548.254150390625	-1105.2568359375	-250.0763854980469	1030.206909179688	-1229.30615234375	-239.4591064453126	1029.051391601563	-1007.66650390625	-411.1069641113282	1124.433959960938	-1110.100463867188	-429.6799926757814	1097.151245117188	-1137.541748046875	-425.6744384765626	1097.765747070313	-1080.4072265625	-335.8486633300782	778.1873779296877	-1275.12060546875	-281.7807922363282	713.0223388671876	-1277.10791015625	-236.4444580078126	725.9935302734376	-1283.067016601563	-287.6606750488282	657.9707641601564	-1256.887451171875	-235.1536865234376	538.4040527343751	-1240.097778320313	-243.0808563232422	530.8873291015626	-1111.502685546875	-232.2550354003907	317.4285583496094	-1176.876342773438	-304.0836181640626	290.7678222656251	-1218.936157226563	-264.6340637207032	276.2736206054688	-1202.751342773438	-278.2146911621094	201.2660369873047	-1158.707885742188	-361.8921508789063	128.5205688476563	-1170.584106445313	-330.6984252929688	142.485580444336	-1087.371337890625	-428.272918701172	100.7576293945313	-1120.736206054688	-215.7430267333985	55.3731155395508	-1102.287963867188	-216.0396575927735	51.59335327148439	-1148.623779296875	-270.1716613769532	41.2197380065918	-1197.596313476563	-327.3218994140626	771.244812011719	-937.3371582031252	-302.6429443359376	709.9229125976564	-944.2559814453127	-270.3377380371094	706.8275756835939	-951.1519165039065	-343.2025756835938	637.9672241210939	-951.0350341796877	-374.3411560058594	529.6947021484376	-965.3985595703127	-375.8557739257813	530.3073120117189	-1094.943115234375	-518.7732543945314	419.7052307128907	-1009.105285644531	-613.8389892578126	469.2630310058595	-986.0056152343752	-605.1190185546876	424.7404785156251	-998.114929199219	-644.4810180664064	399.4537658691407	-1036.47802734375	-769.2897949218752	419.8011169433595	-1023.5478515625	-745.9121704101564	414.6434326171876	-1109.494995117188	-817.2466430664065	480.1760253906251	-1081.423095703125	-788.5969238281252	262.7087707519532	-1111.697631835938	-793.6408691406252	259.8987121582032	-1071.363891601563	-832.4387207031252	290.9728088378907	-1021.9677734375	nan	nan	nan	nan	nan	nan	
920	4.595	-125.065055847168	1761.580322265625	-1200.9384765625	-243.1045989990235	1696.767822265625	-1242.794799804688	-291.4533386230469	1651.406127929688	-1111.416137695313	-280.9534301757813	1541.58203125	-1156.397827148438	-361.8251342773438	1246.45361328125	-1126.070922851563	-156.1144561767578	1473.166137695313	-1163.474609375	-219.2088928222657	1536.273559570313	-1298.107666015625	-71.58103942871095	1502.019287109375	-1394.326293945313	-38.11528396606446	1516.390625	-1360.0400390625	-2.930350065231324	1493.901245117188	-1404.8818359375	56.00605773925783	1470.510864257813	-1411.566040039063	52.54445648193361	1412.663330078125	-1379.02783203125	325.0955810546876	1507.131103515625	-1301.99951171875	332.3713684082032	1514.328735351563	-1377.132934570313	411.6353149414064	1531.981811523438	-1294.348999023438	-186.4120635986328	1530.762817382813	-1026.265014648438	-28.36822319030762	1484.905029296875	-941.4082031250002	-1.580646276473999	1507.16748046875	-975.521911621094	40.54120635986329	1474.72265625	-944.9722290039065	102.4123764038086	1470.181762695313	-955.8081665039065	97.12488555908206	1410.31201171875	-1001.718139648438	351.9681396484376	1535.661010742188	-1102.390625	366.9003295898438	1523.788330078125	-1028.589477539063	448.1123046875001	1550.559692382813	-1105.77099609375	-248.6517181396485	1031.051147460938	-1229.295776367188	-238.4682312011719	1030.590576171875	-1007.61474609375	-410.160614013672	1125.10205078125	-1110.165405273438	-428.6873779296876	1097.732055664063	-1137.5205078125	-424.8038940429689	1098.522216796875	-1080.429931640625	-335.8708496093751	779.151550292969	-1275.034545898438	-281.9934387207032	713.5522460937501	-1277.07421875	-236.796127319336	726.5231323242189	-1283.31982421875	-288.3363952636719	658.8877563476564	-1256.838012695313	-236.5251770019532	538.9749755859376	-1240.23583984375	-244.9132385253907	531.7968750000001	-1112.094482421875	-232.8643646240235	317.8652343750001	-1177.129760742188	-305.1618041992188	291.5345153808594	-1218.907836914063	-265.0783081054688	276.9150085449219	-1203.063354492188	-278.5509643554688	201.7756958007813	-1158.917114257813	-361.9284667968751	128.5361022949219	-1170.546508789063	-330.7876892089844	142.5232849121094	-1087.368530273438	-428.275604248047	100.7797088623047	-1120.672607421875	-215.6776885986329	55.36166381835939	-1102.331909179688	-215.8816680908204	51.58342742919923	-1148.630737304688	-270.1755065917969	41.24563217163087	-1197.594970703125	-325.7855529785157	773.085144042969	-937.263122558594	-300.6841735839844	711.3583374023439	-943.515319824219	-268.4284362792969	707.9215698242189	-951.7230224609377	-341.4511108398438	639.1725463867189	-950.5989379882815	-372.0694274902344	531.1889038085939	-964.802429199219	-372.9240722656251	530.8281250000001	-1094.430908203125	-517.4416503906251	420.1409301757814	-1009.54248046875	-611.5626220703126	469.5474548339845	-986.0522460937502	-602.4343261718751	425.2812805175782	-998.3294067382815	-641.6788330078126	400.3619689941407	-1036.169067382813	-767.0748291015626	419.8461303710939	-1023.624084472656	-743.3643798828126	414.6495056152345	-1109.68359375	-814.627380371094	479.9597167968751	-1081.803955078125	-785.8372802734377	262.8511962890626	-1111.651245117188	-790.4592895507815	259.8570251464844	-1071.647216796875	-829.7462158203127	290.8662719726563	-1022.125915527344	nan	nan	nan	nan	nan	nan	
921	4.600000000000001	-126.4665679931641	1763.197631835938	-1200.594482421875	-244.4509582519532	1698.536865234375	-1242.59765625	-293.1520385742188	1653.471313476563	-1111.388427734375	-282.3365783691407	1543.014282226563	-1156.335083007813	-361.6492614746094	1247.342651367188	-1126.271484375	-157.0943756103516	1475.229248046875	-1163.47119140625	-220.7364807128907	1537.838745117188	-1298.100952148438	-72.86068725585939	1503.318725585938	-1394.284423828125	-39.44733047485352	1517.759643554688	-1360.12744140625	-4.177232742309571	1495.469848632813	-1404.8916015625	54.38877487182619	1472.218505859375	-1411.507446289063	51.14885711669923	1414.801513671875	-1378.828491210938	323.6249084472657	1509.250122070313	-1301.724853515625	330.5030517578126	1516.696166992188	-1377.125366210938	410.1115112304689	1534.144287109375	-1294.126220703125	-187.9080505371094	1532.1669921875	-1025.912841796875	-29.41238975524903	1486.243286132813	-941.6228637695315	-2.762614488601685	1508.845581054688	-975.4056396484377	39.45619201660157	1476.198364257813	-945.515808105469	100.9369277954102	1471.549682617188	-956.4837646484377	95.82075500488283	1412.34716796875	-1001.788696289063	350.4722595214844	1537.707885742188	-1102.8505859375	365.7013854980469	1526.520141601563	-1028.734252929688	446.4528198242189	1552.745727539063	-1106.253784179688	-247.7064819335938	1032.484497070313	-1229.408935546875	-237.4934997558594	1031.97705078125	-1007.576416015625	-409.5066833496095	1125.875610351563	-1110.180541992188	-426.6703186035157	1097.510986328125	-1137.298828125	-422.7262268066407	1098.406494140625	-1080.2734375	-335.9083251953126	780.273620605469	-1274.900756835938	-281.9329223632813	714.0485229492189	-1277.048583984375	-236.8629913330079	726.8775024414064	-1283.376708984375	-288.8701782226563	659.5703125000001	-1256.812866210938	-237.5950317382813	539.2803344726564	-1240.306762695313	-245.6400299072266	532.1849975585939	-1112.4013671875	-233.5615692138672	317.9556274414063	-1177.270874023438	-304.8811340332032	291.0329589843751	-1218.863647460938	-266.1253967285157	277.7753601074219	-1203.0517578125	-278.7912597656251	202.0420074462891	-1159.046752929688	-361.9648132324219	128.5316009521485	-1170.4384765625	-330.8324279785157	142.5594482421875	-1087.331176757813	-428.3736572265626	100.8273239135742	-1120.648681640625	-215.6762847900391	55.36888885498048	-1102.340087890625	-215.9790954589844	51.63195800781251	-1148.673950195313	-270.1878662109376	41.26870346069337	-1197.61767578125	-323.9570922851563	774.0526123046877	-937.1037597656252	-298.7015075683594	712.8950805664064	-943.392028808594	-266.4971923828126	710.1735229492189	-950.5557250976565	-338.7608947753907	640.7803344726564	-950.2503662109377	-369.6932373046876	532.2253417968751	-964.663269042969	-370.9758605957032	532.3792724609376	-1093.90185546875	-514.7060546875001	420.7350158691407	-1009.239990234375	-609.0933837890626	469.9875793457032	-985.949645996094	-600.1152954101564	425.8927612304689	-997.865173339844	-638.9213867187501	400.4275512695314	-1036.020874023438	-764.6384277343751	419.9898986816407	-1023.738952636719	-740.7601318359376	414.677703857422	-1109.77880859375	-812.1999511718752	479.7258605957032	-1082.158569335938	-782.5218505859377	262.5148925781251	-1111.67529296875	-787.347595214844	259.7057800292969	-1071.705810546875	-826.721618652344	290.5614318847657	-1022.473937988281	nan	nan	nan	nan	nan	nan	
922	4.605	-127.8313217163086	1764.83056640625	-1200.393920898438	-245.808334350586	1700.205688476563	-1242.484130859375	-294.6118164062501	1655.042724609375	-1111.23095703125	-283.6897277832032	1544.427612304688	-1156.224243164063	-361.3983764648438	1248.344482421875	-1126.374877929688	-158.2521362304688	1477.207153320313	-1163.380126953125	-222.2094421386719	1539.402954101563	-1298.09326171875	-74.1757278442383	1504.814575195313	-1394.445190429688	-40.55893325805665	1519.384399414063	-1360.310546875	-5.165749549865724	1496.845458984375	-1404.959228515625	53.02892303466798	1473.83203125	-1411.447143554688	49.68290328979494	1416.304077148438	-1378.621459960938	322.1678161621094	1511.478881835938	-1301.35546875	329.6156616210938	1518.513305664063	-1376.995971679688	408.3692016601564	1536.5322265625	-1293.836547851563	-189.3396759033203	1533.636108398438	-1025.54736328125	-30.83758735656739	1488.053955078125	-941.0711669921877	-4.580551147460938	1510.432495117188	-975.5521240234377	37.37348556518555	1477.447631835938	-946.0202636718752	99.57759094238284	1474.11474609375	-956.4920654296877	94.50527191162111	1413.890747070313	-1002.093872070313	348.8919982910157	1539.95849609375	-1103.176147460938	364.0605773925782	1528.16650390625	-1029.730712890625	444.8347778320314	1554.784545898438	-1106.696899414063	-246.4882812500001	1033.907470703125	-1229.63330078125	-235.9506225585938	1033.5185546875	-1007.956359863281	-408.7639770507814	1126.799072265625	-1110.216918945313	-426.802947998047	1099.11962890625	-1137.503173828125	-423.0228576660157	1099.884521484375	-1080.618774414063	-335.6662902832032	781.2752075195315	-1274.8876953125	-282.1446838378907	714.7930908203126	-1276.963500976563	-237.115707397461	727.2980346679689	-1283.492553710938	-289.4587097167969	660.3508300781251	-1256.809814453125	-238.4517822265626	539.6262207031251	-1240.343139648438	-245.9661254882813	532.4466552734376	-1112.060424804688	-233.8135070800782	318.0366516113282	-1177.481811523438	-305.2250366210938	291.1651306152344	-1218.924560546875	-266.1017456054688	277.8272094726563	-1203.271484375	-279.0196533203126	202.2650756835938	-1159.1484375	-361.9950561523438	128.5441284179688	-1170.404907226563	-330.8262634277344	142.5494537353516	-1087.309448242188	-428.3157958984376	100.7951889038086	-1120.633666992188	-215.7302703857422	55.27661132812501	-1102.314575195313	-216.3708648681641	52.2114601135254	-1148.85986328125	-270.1531066894532	41.30677795410157	-1197.589599609375	-321.8847351074219	775.2063598632815	-937.022888183594	-296.9025878906251	714.3721923828126	-942.820983886719	-264.5225219726563	711.5443115234376	-950.0402832031252	-337.2657165527344	641.7473754882814	-949.8128662109377	-367.6433105468751	533.2423706054689	-964.0488891601565	-368.9662780761719	533.0828857421876	-1093.550659179688	-511.7152709960939	421.9458618164064	-1008.062377929688	-606.9401245117189	470.4241333007814	-985.806579589844	-597.9314575195314	426.202850341797	-997.5510253906252	-637.0310058593751	400.3801574707032	-1035.858520507813	-762.3207397460939	419.5436401367189	-1024.185546875	-738.0358276367189	414.6293945312501	-1109.78955078125	-809.5681152343752	479.6981201171876	-1082.31982421875	-779.6589355468752	262.6459960937501	-1111.821899414063	-784.5034179687502	259.6069335937501	-1071.927124023438	-823.7979736328127	290.3663330078126	-1022.563781738281	nan	nan	nan	nan	nan	nan	
